<svg xmlns="http://www.w3.org/2000/svg" viewBox="50 30 300 310">
  <defs>
    <linearGradient id="pipelineGradient" x1="0%" y1="0%" x2="100%" y2="100%">
      <stop offset="0%" style="stop-color:#003262;stop-opacity:1" />
      <stop offset="100%" style="stop-color:#00509E;stop-opacity:1" />
    </linearGradient>
    <linearGradient id="hazardGradient" x1="0%" y1="0%" x2="100%" y2="0%">
      <stop offset="0%" style="stop-color:#FDB515;stop-opacity:1" />
      <stop offset="100%" style="stop-color:#C4820E;stop-opacity:1" />
    </linearGradient>
    <filter id="shadow" x="-50%" y="-50%" width="200%" height="200%">
      <feDropShadow dx="0" dy="2" stdDeviation="3" flood-opacity="0.15"/>
    </filter>
  </defs>
  
  <rect width="400" height="400" fill="#ffffff"/>
  
  <g id="pipeline-stages" transform="translate(220, 60)" filter="url(#shadow)">
    <path d="M -130,0 L -70,0 L -45,40 L -70,80 L -130,80 L -105,40 Z" 
          fill="url(#pipelineGradient)" opacity="0.6"/>
    
    <path d="M -60,0 L 0,0 L 25,40 L 0,80 L -60,80 L -35,40 Z" 
          fill="url(#pipelineGradient)" opacity="0.8"/>
    
    <path d="M 10,0 L 70,0 L 95,40 L 70,80 L 10,80 L 35,40 Z" 
          fill="url(#pipelineGradient)" opacity="1"/>
    
    <g id="hazard-indicator">
      <path d="M -45,15 L -30,15 L -25,25 L -40,25 Z" fill="url(#hazardGradient)"/>
      <path d="M -35,35 L -20,35 L -15,45 L -30,45 Z" fill="url(#hazardGradient)"/>
      <path d="M -25,55 L -10,55 L -5,65 L -20,65 Z" fill="url(#hazardGradient)"/>
    </g>
  </g>
  
  <g transform="translate(200, 200)">
    <text x="0" y="0" font-family="'Arial Black', 'Arial Bold', sans-serif" font-size="72" 
          font-weight="900" fill="#003262" text-anchor="middle">Hazard</text>
    <text x="0" y="80" font-family="'Arial Black', 'Arial Bold', sans-serif" font-size="96" 
          font-weight="900" fill="#FDB515" text-anchor="middle">3</text>
  </g>
  

</svg>
